<?xml version="1.0" encoding="utf-8"?>
<!-- Generator: Adobe Illustrator 23.1.1, SVG Export Plug-In . SVG Version: 6.00 Build 0)  -->
<svg version="1.1" id="Calque_1" xmlns="http://www.w3.org/2000/svg" xmlns:xlink="http://www.w3.org/1999/xlink" x="-100px" y="0px"
	 viewBox="0 0 200 100" style="enable-background:new 0 0 100 200;" xml:space="preserve">
<style type="text/css">
	.st0{fill:#00AFDB;}
	.st1{fill:#0096BF;}
	.st2{fill:#007FA2;}
	.st3{fill:#1D1D1B;}
</style>
<path class="st0" d="M50.4,44.2c-3.4,0-6.2,2.8-6.2,6.2s2.8,6.2,6.2,6.2c3.4,0,6.2-2.8,6.2-6.2S53.8,44.2,50.4,44.2"/>
<path class="st1" d="M38.7,50.4c0-1.5-1.3-2.8-2.8-2.8s-2.8,1.3-2.8,2.8s1.3,2.8,2.8,2.8C37.5,53.2,38.7,52,38.7,50.4"/>
<path class="st1" d="M64.9,47.6c-1.5,0-2.8,1.3-2.8,2.8s1.3,2.8,2.8,2.8s2.8-1.3,2.8-2.8S66.5,47.6,64.9,47.6"/>
<path class="st1" d="M40.2,57.9c-0.7,0-1.4,0.3-2,0.8c-0.6,0.5-0.8,1.2-0.8,2c0,0.7,0.3,1.4,0.8,2c0.5,0.5,1.2,0.8,2,0.8
	c0.7,0,1.4-0.3,2-0.8c0.5-0.5,0.8-1.2,0.8-2c0-0.7-0.3-1.4-0.8-2C41.6,58.2,40.9,57.9,40.2,57.9"/>
<path class="st1" d="M60.7,43c0.7,0,1.4-0.3,2-0.8c0.5-0.5,0.8-1.2,0.8-2c0-0.7-0.3-1.4-0.8-2c-0.5-0.5-1.2-0.8-2-0.8
	c-0.7,0-1.4,0.3-2,0.8c-0.5,0.5-0.8,1.2-0.8,2c0,0.7,0.3,1.5,0.8,2S59.9,43,60.7,43"/>
<path class="st1" d="M40.2,43c0.7,0,1.4-0.3,2-0.8c1.1-1.1,1.1-2.9,0-4c-0.5-0.5-1.2-0.8-2-0.8c-0.7,0-1.4,0.3-2,0.8
	c-0.5,0.5-0.8,1.2-0.8,2c0,0.7,0.3,1.5,0.8,2S39.4,43,40.2,43"/>
<path class="st1" d="M60.7,57.9c-0.7,0-1.4,0.3-2,0.8c-0.5,0.5-0.8,1.2-0.8,2c0,0.7,0.3,1.4,0.8,2c0.5,0.5,1.2,0.8,2,0.8
	c0.8,0,1.4-0.3,2-0.8c0.5-0.5,0.8-1.2,0.8-2c0-0.7-0.3-1.4-0.8-2C62.1,58.2,61.4,57.9,60.7,57.9"/>
<path class="st1" d="M50.4,33.1c-1.5,0-2.8,1.3-2.8,2.8s1.3,2.8,2.8,2.8s2.8-1.3,2.8-2.8S52,33.1,50.4,33.1"/>
<path class="st1" d="M50.4,62.2c-1.5,0-2.8,1.3-2.8,2.8s1.3,2.8,2.8,2.8s2.8-1.3,2.8-2.8S52,62.2,50.4,62.2"/>
<path class="st2" d="M74,48.9c-0.9,0-1.6,0.7-1.6,1.6s0.7,1.6,1.6,1.6s1.6-0.7,1.6-1.6C75.6,49.6,74.9,48.9,74,48.9"/>
<path class="st2" d="M50.4,72.5c-0.9,0-1.6,0.7-1.6,1.6c0,0.9,0.7,1.6,1.6,1.6c0.9,0,1.6-0.7,1.6-1.6C52,73.2,51.3,72.5,50.4,72.5"
	/>
<path class="st2" d="M50.4,28.4c0.9,0,1.6-0.7,1.6-1.6s-0.7-1.6-1.6-1.6c-0.9,0-1.6,0.7-1.6,1.6S49.5,28.4,50.4,28.4"/>
<path class="st2" d="M65.9,65.9c-0.3,0.3-0.5,0.7-0.5,1.1c0,0.4,0.2,0.8,0.5,1.1c0.3,0.3,0.7,0.5,1.1,0.5s0.8-0.2,1.1-0.5
	c0.3-0.3,0.5-0.7,0.5-1.1s-0.2-0.8-0.5-1.1c-0.3-0.3-0.7-0.5-1.1-0.5C66.6,65.5,66.2,65.7,65.9,65.9"/>
<path class="st2" d="M66,32.8c-0.3,0.3-0.5,0.7-0.5,1.1s0.2,0.8,0.5,1.1c0.3,0.3,0.7,0.5,1.1,0.5s0.8-0.2,1.1-0.5
	c0.3-0.3,0.5-0.7,0.5-1.1s-0.2-0.8-0.5-1.1c-0.3-0.3-0.7-0.5-1.1-0.5S66.3,32.4,66,32.8"/>
<path class="st2" d="M72.2,57.9c-0.2,0-0.4,0-0.7,0.1c-0.6,0.2-1,0.8-1,1.4c0,0.9,0.7,1.6,1.5,1.6c0.2,0,0.5,0,0.7-0.1
	c0.6-0.2,1-0.8,1-1.4C73.8,58.7,73.1,57.9,72.2,57.9"/>
<path class="st2" d="M59.4,30.3c0.2,0,0.4,0,0.7-0.1c0.6-0.2,1-0.8,1-1.4c0-0.4-0.1-0.8-0.4-1.1c-0.3-0.3-0.7-0.5-1.1-0.5
	c-0.2,0-0.4,0-0.7,0.1c-0.6,0.2-1,0.8-1,1.4C57.8,29.5,58.5,30.2,59.4,30.3"/>
<path class="st2" d="M58.8,70.8c-0.2,0.1-0.3,0.2-0.5,0.3c-0.3,0.3-0.5,0.7-0.5,1.1c0,0.4,0.1,0.8,0.4,1.1c0.4,0.5,1.2,0.6,1.8,0.4
	c0.2-0.1,0.3-0.2,0.5-0.3c0.6-0.6,0.7-1.6,0.1-2.2C60.1,70.8,59.4,70.5,58.8,70.8"/>
<path class="st2" d="M72.8,42.9c0.2-0.1,0.3-0.2,0.5-0.3c0.6-0.6,0.7-1.6,0.1-2.2C73,40,72.2,39.8,71.6,40c-0.2,0.1-0.3,0.2-0.5,0.3
	C70.5,41,70.4,42,71,42.6C71.5,43,72.2,43.1,72.8,42.9"/>
<path class="st2" d="M26.8,48.9c0.9,0,1.6,0.7,1.6,1.6s-0.7,1.6-1.6,1.6s-1.6-0.7-1.6-1.6C25.2,49.6,25.9,48.9,26.8,48.9"/>
<path class="st2" d="M34.9,65.9c0.3,0.3,0.5,0.7,0.5,1.1c0,0.4-0.2,0.8-0.5,1.1c-0.3,0.3-0.7,0.5-1.1,0.5c-0.4,0-0.8-0.2-1.1-0.5
	c-0.3-0.2-0.5-0.6-0.5-1c0-0.4,0.2-0.8,0.5-1.1c0.3-0.3,0.7-0.5,1.1-0.5C34.2,65.5,34.6,65.7,34.9,65.9"/>
<path class="st2" d="M34.9,32.8c0.3,0.3,0.5,0.7,0.5,1.1s-0.2,0.8-0.5,1.1c-0.3,0.3-0.7,0.4-1.2,0.4c-0.4,0-0.8-0.2-1.1-0.5
	c-0.3-0.2-0.4-0.6-0.4-1s0.2-0.8,0.5-1.1c0.2-0.3,0.6-0.5,1-0.5C34.2,32.2,34.6,32.4,34.9,32.8"/>
<path class="st2" d="M28.6,57.9c0.2,0,0.4,0,0.7,0.1c0.6,0.2,1,0.8,1,1.4c0,0.9-0.7,1.6-1.5,1.6c-0.2,0-0.4,0-0.7-0.1
	c-0.6-0.2-1-0.8-1-1.4C27,58.7,27.7,57.9,28.6,57.9"/>
<path class="st2" d="M41.5,30.3c-0.2,0-0.4,0-0.7-0.1c-0.6-0.2-1-0.8-1-1.4c0-0.4,0.1-0.8,0.4-1.1c0.3-0.3,0.7-0.5,1.1-0.5
	c0.2,0,0.4,0,0.7,0.1c0.6,0.2,1,0.8,1,1.4C43,29.5,42.3,30.2,41.5,30.3"/>
<path class="st2" d="M42,70.8c0.2,0.1,0.3,0.2,0.5,0.3c0.3,0.3,0.5,0.7,0.5,1.1c0,0.4-0.1,0.8-0.4,1.1c-0.4,0.5-1.2,0.6-1.8,0.4
	c-0.2-0.1-0.3-0.2-0.5-0.3c-0.6-0.6-0.7-1.6-0.1-2.2C40.7,70.8,41.4,70.5,42,70.8"/>
<path class="st2" d="M28,42.9c-0.2-0.1-0.3-0.2-0.5-0.3c-0.6-0.6-0.7-1.6-0.1-2.2c0.4-0.5,1.2-0.6,1.8-0.4c0.2,0.1,0.3,0.2,0.5,0.3
	c0.6,0.6,0.7,1.6,0.1,2.2C29.3,43,28.6,43.1,28,42.9"/>
</svg>
